<?xml version="1.0" encoding="utf-8"?>
<!-- Generator: Adobe Illustrator 24.1.1, SVG Export Plug-In . SVG Version: 6.00 Build 0)  -->
<svg version="1.1" id="body_1" xmlns="http://www.w3.org/2000/svg" xmlns:xlink="http://www.w3.org/1999/xlink" x="0px" y="0px"
	 viewBox="0 0 159 225" style="enable-background:new 0 0 159 225;" xml:space="preserve">
<style type="text/css">
	.st0{fill:#E4E6ED;}
	.st1{fill:#605A5A;stroke:#FEFEFE;stroke-width:0.8547;stroke-linecap:square;stroke-miterlimit:1.1604;}
</style>
<g transform="matrix(0.21368256 0 0 0.21368256 -0 0.06429779)">
	<g>
		<g transform="matrix(1 0 0 1 -12.36079 264.97687)">
			<path class="st0" d="M92.1,276.4c0-2.8,137.6-5,307.2-5s307.2,2.2,307.2,5c0,2.8-137.6,5-307.2,5S92.1,279.2,92.1,276.4z"/>
			<g transform="matrix(-1.3575685 -0 0 1.3575684 18.860031 -405.52963)">
				<path class="st1" d="M-478.6,483.1c0-20.9,17.3-37.9,38.7-37.9s38.7,17,38.7,37.9S-418.6,521-440,521S-478.6,504.1-478.6,483.1"
					/>
			</g>
			<g transform="matrix(-1.3575685 -0 0 1.3575684 -377.23135 -402.778)">
				<path class="st1" d="M-469.8,483.1c0-20.9,17.3-37.9,38.7-37.9s38.7,17,38.7,37.9s-17.3,37.9-38.7,37.9
					S-469.8,504.1-469.8,483.1"/>
			</g>
			<path class="st0" d="M68,147c0.5-0.6,5.3,3,14.9,7.8c9.4,4.7,24.3,11,43.2,12.9c0,0,0,0,0,0c18.1,1.9,38-0.3,61.2-6.9
				c19.9-5.6,37-12.8,59.4-21.2c15.5-5.8,32.1-11.6,49.2-16.1c15.8-4.2,31.3-7.2,46.7-8.8c37.8-3.8,71.4,2.6,97.9,16.4
				c12.9,6.8,39.1,25.5,45.7,29.6c22.5,14.1,37.8,18.1,37.3,19.6c-0.1,0.5-16.1-1.6-40.2-14.7c-3.9-2.1-37.7-23.2-46.4-27.4
				c-25.4-12.4-57.1-17.6-93.3-13.8c-14.8,1.6-29.8,4.5-45.1,8.7c-16.7,4.5-33,10.1-48.4,15.7c-22.1,8.1-40,15.2-60.5,20.5
				c-24.1,6.3-45.4,7.9-64.4,5.1h0C83.1,168.2,68.7,146.1,68,147L68,147L68,147z"/>
			<path class="st0" d="M76,276.4c-0.2,0.1-2.1-2.3-4.3-7.6c-2.1-5.1-4.6-13.8-4.4-24.7c0.2-9.6,2.5-21.4,9.2-32.9c0,0,0,0,0,0
				c8.3-14.2,22.9-27.1,42.8-34.8c17.5-6.8,36.8-9.2,58.2-9.6h0c25-0.5,50.1,1.4,78,4.3c23.8,2.4,51.6,5.8,77.2,7.4
				c18.2,1.1,36.6,1.5,55.5,1.4c6.8,0,115.5-2.6,118.7-2.7l0,0c43.6-0.4,81.3,1.6,116.8,7.2v0c19.6,3.1,36.7,7,52.5,13.2
				c13.6,5.3,24.7,11.9,33.5,20.1v0c10,9.3,15.2,19.9,16.8,29.5c1.6,10-1,18.2-3,22.7c-2.2,4.8-4.3,6.7-4.5,6.6
				c-0.4-0.2,1.1-2.5,2.6-7.3c1.4-4.5,3.1-12.3,1.1-21.2c-1.9-8.6-7.2-17.8-16.7-26.2v0c-8.4-7.4-19.1-13.1-32.2-17.9
				c-15.4-5.5-31.9-8.9-51.3-11.6l0,0c-35.2-4.8-72.2-6.3-115.5-5.6c0,0,0,0,0,0c-29.2,0.5-85.4,3-118.8,3.1
				c-19.1,0.1-37.8-0.3-56.2-1.5c-26.2-1.7-53.8-5.3-77.6-7.9c-27.9-3.1-52.4-5.3-76.9-5.2l0,0c-21,0.1-39.2,1.9-55.8,7.9
				c-18.6,6.8-32.5,18.1-40.5,31l0,0c-6.6,10.4-9.3,21.2-10,30.2c-0.8,10.2,1,18.7,2.4,23.9C75.2,273.5,76.4,276.2,76,276.4
				L76,276.4L76,276.4z"/>
		</g>
	</g>
</g>
</svg>
